/* XPM */
static char *north_texture[] = {
/* columns rows colors chars-per-pixel */
"64 64 3 1",
"  c #4A90E2", // Light blue
". c #5B9FEF", // Slightly darker blue
"X c #357ABD", // Dark blue
/* pixels */
"                ................XXXXXXXXXXXXXXXX                ",
"                ................XXXXXXXXXXXXXXXX                ",
"                ................XXXXXXXXXXXXXXXX                ",
"                ................XXXXXXXXXXXXXXXX                ",
"                ................XXXXXXXXXXXXXXXX                ",
"                ................XXXXXXXXXXXXXXXX                ",
"                ................XXXXXXXXXXXXXXXX                ",
"                ................XXXXXXXXXXXXXXXX                ",
"XXXXXXXXXXXXXXXX                ................XXXXXXXXXXXXXXXX",
"XXXXXXXXXXXXXXXX                ................XXXXXXXXXXXXXXXX",
"XXXXXXXXXXXXXXXX                ................XXXXXXXXXXXXXXXX",
"XXXXXXXXXXXXXXXX                ................XXXXXXXXXXXXXXXX",
"XXXXXXXXXXXXXXXX                ................XXXXXXXXXXXXXXXX",
"XXXXXXXXXXXXXXXX                ................XXXXXXXXXXXXXXXX",
"XXXXXXXXXXXXXXXX                ................XXXXXXXXXXXXXXXX",
"XXXXXXXXXXXXXXXX                ................XXXXXXXXXXXXXXXX",
"................XXXXXXXXXXXXXXXX                ................",
"................XXXXXXXXXXXXXXXX                ................",
"................XXXXXXXXXXXXXXXX                ................",
"................XXXXXXXXXXXXXXXX                ................",
"................XXXXXXXXXXXXXXXX                ................",
"................XXXXXXXXXXXXXXXX                ................",
"................XXXXXXXXXXXXXXXX                ................",
"................XXXXXXXXXXXXXXXX                ................",
"                ................XXXXXXXXXXXXXXXX                ",
"                ................XXXXXXXXXXXXXXXX                ",
"                ................XXXXXXXXXXXXXXXX                ",
"                ................XXXXXXXXXXXXXXXX                ",
"                ................XXXXXXXXXXXXXXXX                ",
"                ................XXXXXXXXXXXXXXXX                ",
"                ................XXXXXXXXXXXXXXXX                ",
"                ................XXXXXXXXXXXXXXXX                ",
"XXXXXXXXXXXXXXXX                ................XXXXXXXXXXXXXXXX",
"XXXXXXXXXXXXXXXX                ................XXXXXXXXXXXXXXXX",
"XXXXXXXXXXXXXXXX                ................XXXXXXXXXXXXXXXX",
"XXXXXXXXXXXXXXXX                ................XXXXXXXXXXXXXXXX",
"XXXXXXXXXXXXXXXX                ................XXXXXXXXXXXXXXXX",
"XXXXXXXXXXXXXXXX                ................XXXXXXXXXXXXXXXX",
"XXXXXXXXXXXXXXXX                ................XXXXXXXXXXXXXXXX",
"XXXXXXXXXXXXXXXX                ................XXXXXXXXXXXXXXXX",
"................XXXXXXXXXXXXXXXX                ................",
"................XXXXXXXXXXXXXXXX                ................",
"................XXXXXXXXXXXXXXXX                ................",
"................XXXXXXXXXXXXXXXX                ................",
"................XXXXXXXXXXXXXXXX                ................",
"................XXXXXXXXXXXXXXXX                ................",
"................XXXXXXXXXXXXXXXX                ................",
"................XXXXXXXXXXXXXXXX                ................",
"                ................XXXXXXXXXXXXXXXX                ",
"                ................XXXXXXXXXXXXXXXX                ",
"                ................XXXXXXXXXXXXXXXX                ",
"                ................XXXXXXXXXXXXXXXX                ",
"                ................XXXXXXXXXXXXXXXX                ",
"                ................XXXXXXXXXXXXXXXX                ",
"                ................XXXXXXXXXXXXXXXX                ",
"                ................XXXXXXXXXXXXXXXX                ",
"XXXXXXXXXXXXXXXX                ................XXXXXXXXXXXXXXXX",
"XXXXXXXXXXXXXXXX                ................XXXXXXXXXXXXXXXX",
"XXXXXXXXXXXXXXXX                ................XXXXXXXXXXXXXXXX",
"XXXXXXXXXXXXXXXX                ................XXXXXXXXXXXXXXXX",
"XXXXXXXXXXXXXXXX                ................XXXXXXXXXXXXXXXX",
"XXXXXXXXXXXXXXXX                ................XXXXXXXXXXXXXXXX",
"XXXXXXXXXXXXXXXX                ................XXXXXXXXXXXXXXXX",
"XXXXXXXXXXXXXXXX                ................XXXXXXXXXXXXXXXX"