/* XPM */
static char *_983dd5d21a042ccbe7b4cc39d8f0438jvNEEQYYKFl9rkk6[] = {
/* columns rows colors chars-per-pixel */
"36 64 220 2 ",
"   c #0D0C0A",
".  c #120F0B",
"X  c #13110E",
"o  c #1B170F",
"O  c #151411",
"+  c #1A1512",
"@  c #1E1A15",
"#  c #1E1D19",
"$  c #21180F",
"%  c #231D15",
"&  c #2F1D13",
"*  c #231E1A",
"=  c #371F14",
"-  c #292217",
";  c #24221C",
":  c #2B251D",
">  c #38261B",
",  c #332A1E",
"<  c #292522",
"1  c #2E2A23",
"2  c #352D23",
"3  c #392E23",
"4  c #332F29",
"5  c #3B3226",
"6  c #383328",
"7  c #3D3429",
"8  c #4B321B",
"9  c #423526",
"0  c #483524",
"q  c #40352B",
"w  c #453B2C",
"e  c #4B3C2C",
"r  c #5A3A25",
"t  c #433C32",
"y  c #4B3D33",
"u  c #73342F",
"i  c #4A422D",
"p  c #4C4235",
"a  c #4C433A",
"s  c #534433",
"d  c #584936",
"f  c #55473A",
"g  c #554A3D",
"h  c #594B3C",
"j  c #5B503D",
"k  c #68482C",
"l  c #664738",
"z  c #714F33",
"x  c #62513E",
"c  c #6C563E",
"v  c #775638",
"b  c #7C5B3C",
"n  c #75633F",
"m  c #564C42",
"M  c #5B4E44",
"N  c #594E48",
"B  c #5C5144",
"V  c #5C554A",
"C  c #625243",
"Z  c #675744",
"A  c #6B5C45",
"S  c #63564B",
"D  c #62594C",
"F  c #6B5C4D",
"G  c #765E47",
"H  c #675C52",
"J  c #725F50",
"K  c #6D604B",
"L  c #7A6646",
"P  c #75634C",
"I  c #7D6B4B",
"U  c #6C6253",
"Y  c #6F655B",
"T  c #736453",
"R  c #786656",
"E  c #7C6C54",
"W  c #756A5C",
"Q  c #7B6C5B",
"!  c #7D7159",
"~  c #776D64",
"^  c #7E7764",
"/  c #855B39",
"(  c #843F44",
")  c #87494B",
"_  c #855F40",
"`  c #876648",
"'  c #826E4C",
"]  c #966B43",
"[  c #936A48",
"{  c #84714E",
"}  c #97734D",
"|  c #846D53",
" . c #856A57",
".. c #857353",
"X. c #897653",
"o. c #877857",
"O. c #8B7955",
"+. c #84755E",
"@. c #89755B",
"#. c #8D7B5A",
"$. c #927452",
"%. c #977757",
"&. c #927D5D",
"*. c #9B7C5C",
"=. c #A2784E",
"-. c #A47C56",
";. c #857563",
":. c #867867",
">. c #8D7B63",
",. c #8C7C6B",
"<. c #947E64",
"1. c #917E6A",
"2. c #8C7F70",
"3. c #92815F",
"4. c #A6835E",
"5. c #8D8168",
"6. c #948364",
"7. c #998565",
"8. c #95846B",
"9. c #99866B",
"0. c #998A69",
"q. c #9B8B6D",
"w. c #8A8173",
"e. c #8A827C",
"r. c #938573",
"t. c #948C76",
"y. c #9C8C72",
"u. c #948C7C",
"i. c #9C8D7A",
"p. c #9F9073",
"a. c #9D917B",
"s. c #A28B6B",
"d. c #A88A68",
"f. c #A4906E",
"g. c #A28F76",
"h. c #A39474",
"j. c #AC9475",
"k. c #A89977",
"l. c #A3947B",
"z. c #A6997C",
"x. c #AA9A7D",
"c. c #B99771",
"v. c #9B8E82",
"b. c #9D9383",
"n. c #9F9B93",
"m. c #B18F85",
"M. c #A49583",
"N. c #A79A83",
"B. c #AB9D83",
"V. c #A59A8A",
"C. c #AB9D8B",
"Z. c #B39D89",
"A. c #A49D95",
"S. c #A99E95",
"D. c #A49F99",
"F. c #A89F98",
"G. c #AEA085",
"H. c #ADA28B",
"J. c #B1A386",
"K. c #BCA287",
"L. c #B2A48B",
"P. c #B6A98E",
"I. c #ABA195",
"U. c #A7A099",
"Y. c #ACA49B",
"T. c #AFA89E",
"R. c #B2A492",
"E. c #B9A796",
"W. c #B5A993",
"Q. c #B9AD94",
"!. c #B1A79D",
"~. c #B4AA9C",
"^. c #BBAD9B",
"/. c #BCB197",
"(. c #BDB29C",
"). c #ADA6A0",
"_. c #AFA9A2",
"`. c #B0A7A0",
"'. c #B3ABA4",
"]. c #B9AEA4",
"[. c #B5AEA8",
"{. c #B8AFA8",
"}. c #BCB2A5",
"|. c #B7B1AA",
" X c #BCB3AA",
".X c #BFB8A8",
"XX c #C59594",
"oX c #C0A892",
"OX c #C1B59D",
"+X c #C2B89F",
"@X c #C4BAA4",
"#X c #C1B6AB",
"$X c #C7B9A8",
"%X c #C4BCAC",
"&X c #C7BEB3",
"*X c #CDC2AF",
"=X c #CCC5B5",
"-X c #CDC6BA",
";X c #CEC9B9",
":X c #D2C9B9",
">X c #D2CBBB",
",X c #D3CDC4",
"<X c #DBD5C5",
"1X c #D6D2CC",
"2X c #D8D3C8",
"3X c #DAD5CA",
"4X c #D9D6CF",
"5X c #D9D6D1",
"6X c #DBD9D4",
"7X c #DCDBD6",
"8X c #DDDDD7",
"9X c #DEDED9",
"0X c #E2DCCF",
"qX c #E1DCD2",
"wX c #E1DFDA",
"eX c #DFE0DB",
"rX c #E7E3D5",
"tX c #E1E2DD",
"yX c #E3E2DD",
"uX c #E5E5E0",
/* pixels */
"'.).'._.)._._._.[.`._._._.).Y.U.Y.U.U.U.U.U.A.n.A.A.D.n.yXyX8X9X9XeX9X6X",
"_.'.'.'.Y._._._.'.)._.U.`.`.).`.).Y.U.U.U.U.A.A.A.A.D.n.yXyXeXeXeXeX9XeX",
"_.'.'.'.).'._._.'.`.'.Y.'.Y.Y.Y.).Y.U.U.U.S.U.S.S.D.A.A.yXyXeXeX9X9XyX8X",
"'._.'._._.'._._.'.'.T._.).Y._.Y.).Y.Y.U.U.U.A.S.U.A.A.A.yXyXyXeX9XyXyX9X",
"'.'.`.).'.'.'.'.'.'.'.T.`.`.T.Y.).Y.U.U.U.Y.S.S.S.S.n.A.wXyXyX8X9XyX9XeX",
"'._.'._.[.'.'.'.`.'.`.`.'.'.`.Y.Y._.Y.U.Y.U.S.U.A.S.A.A.1XyXyXeX9XyXyXyX",
"'._.'.[.'.'.'.'.`.'.'.'.`.'.Y.Y.Y.`.U.U.U.F.S.S.D.D.S.D.|.yXyXyXyXyXyXyX",
"'._.`.[.[.'.[.'.`.[.'.`.'.[.`.Y.Y.Y.U.U.I.U.S.S.A.D.S.D.U.yXuXyXyXyXyXyX",
"[.'.'.[.`.`.[.[.'.`.'.`.`.!.`.`.Y.`.Y.U.I.S.F.S.A.S.S.U.U.yXyXyXyXeXyXyX",
"[.|.'.|.[.[.`.'.[.[.'.`.!.'.`.!.!.Y.Y.I.S.S.U.I.D.U.S.S.D.uXyXeX9XeXyXeX",
"'.[.'.'.[.`.[.'.`.'.`.`.`.`.'.!.!.`.Y.Y.Y.U.Y.S.Y.S.S.S.U.uXyX9X8X9X9X9X",
"[.|.'.`.[.`.[.'.`.`.[.[.`.'.'.!.Y.!.!.!.S.Y.I.I.S.A.S.S.U.uXyX9X7X8X9X6X",
"[.'.'.`.`.`.'.{.`.[.].`.`.`.'.`.!.!.Y.Y.Y.Y.U.Y.S.I.S.A.S.uXyX9X9X8X9X6X",
"'.[.'.`.'.[.'.`.'.|.'.`.'.Y.'.Y.[.'.`.Y.Y.Y.Y.Y.I.S.S.U.S.uXyX7X7X8X9X7X",
"[.[.[.'.[.`.'.'.`.'.!.`.'.'.!.!.'.!.!.!.!.!.Y.I.Y.Y.U.S.S.uXyXwX8X7X6X6X",
"[.'.[.'.'.'.'.`.}.].].'.'.'.`.'.!.'.!.'.!.!.Y.Y.I.Y.Y.Y.`.yXyX9X7X6X6X6X",
"[.[.].].[.`.'.[.].'.].'.].].!.!.].!.!.'.!.!.Y.Y.Y.Y.!.`.m &X8XwX6X5X6X6X",
"[.[.'.].[.{.'.'.'.[.[.].'.].'.].].~.].!.~.!.!.!.!.!.!.t m  XwX9X7X6X5X5X",
"[.[.[.|.[.].].].'.].'.].}.].].}.].].~.].].'.'.`.!.S.a p I &X|.8X6X5X6X3X",
" X{.{.{.'.[.].'.].].].'.].^.v.#X}. X!.I.b.S.Y 4 w 1 < , I.}.yXwX5X3X5X4X",
"!.|.].|.].}.[.].].].}.].#X~.R.y 2 t w ; # ; ; # t 7 ; R }.!.yX6X3X3X3X3X",
"#X.X X.X]. X}.].].|.}.#X X].m.Z.P * : * ; ; 4 # ; t K Q b.I.wX6X1X1X3X2X",
"oX[ } ] d.d.K.]. X#XK.d.^. X^.Z.y.;.p < 1 * V # 7 9 >.1.i.S.wX7X5X1X1X2X",
"*XE.=.j.M.r.L.=./ / / ] c.[ R.Z.8.E  .* 1 ; 2 : d B +.<.:.l.*.[ d.&X3X,X",
">.B H ' ,.F s.d.-.=.=.%.-.] H.P A E A a ; 6 B U p q 7 3 f F B.4./ / -.$X",
"p < 3 W W 7 7 7 s 9 s P d h C E >.+.P ;.: ! 7 p s w 7 7 e Z C..X}.^.s.$.",
"* : 3 w W V t @ w : c x m a.g K a.R , F t ^ * w s x q q p x W V S :..X].",
"V < O : q w % : : : c B M.1.+.: o.>.1 w.; 4 * B J 7 # : 5 d ..V.N m D s.",
"I.7 + : p w * : 3 : w b.z.J E Q 6.j r.^ B ; 7 p 9 w w e N.C.R.].U.D s.*.",
"].~.+ * 7 : % + 3 ; F I.-X>X>X=X>Xl.9.%X~ g 9 N.F d A l.N.V.I..X^.j.d.4.",
".X].B U a 2 W O 9 5 C ^.;X2X<X<X0X2XM.<X,.f d @X}.a.9.y.i.l.C.].1.7.` b ",
";X.X~.,.T B r.g t A S ~.&X<X<X<X<XqX>XqXI.>.V.1.M.8.y.i.l.M.C.~.:.L / ` ",
"2X%X].~.r.,.C.:.u.d 8.C.I.-X<X;X>XrX<X>Xx.l l.i.<.8.9.y.l.M.C.^.P &._ $.",
"].>Xl.%Xv.E.C.y.r.d ,.H.G..X>X>X(.W.6X%X) ( u @.+.>.y.y.M.N.C.R.J G %.b ",
",X=XM.#XC.^.z.l.5.A l.N.R.W.;X>X}.Z.y.$XXX)  .@.| 8.<.9.i.N.I.C.R | v z ",
"-X}.~.~.(.^.l.y.i.E z.>.~.H.%X=X@XQ.z.<X$X].].N.>.#.9.y.l.M.C.N.| G k k ",
"-X.Xy.~.}.W.N.N.C.>.l.M.C.V.L.%X;X*X$X<X0X>X~.R.B.y.l.N.M.M.:.&.v G k %.",
"}.%XM.R.C.R.Z.C.l.C.B.R.Z.a.C.L.;X>XJ.rX2X;X~.R.C.;.@.+.,.+.@.G $.` ` s.",
"~..X(.W.C.H.N.L.C.J.y.Z.C.l.J.J.(.>X(.rX>X%X=XS.a.+.^ E <.l | v k ` d.*.",
"I.~.=X^.N.I.M.8.I.W.x.y.9.>.y.z.H.Q.@X<X>X;X@XM.t.F F Z c.%.j.<.8 *.*.k ",
"w.u.w.u.i.8.N.l.L.^.^.^.^.M...8.y.x.Q.;X;X%XI.r.V.@ S > > %.s.s.j.} z } ",
"Q h D M.8.r.,.N.l.^.^.@XP.t.+.P >.q.(.}.~.~.a.F w.  H g % & r v v d.*._ ",
"y p :.:.r.r.;.C.g.L.E.^.W.V.Q ! 1.8.y.r.w.:.2.u.,   * 3 + : > ` $.$.k v ",
": q Z F R E ;.1.C.l.L.R.W.E.g S x R P K 7 6 W *     X B + % & > [ ` ` 6.",
"+ : B w 5 w T t.l.8.z.W.C.W.H.B 5 d e o e u.W p       X V OXJ.J.z.k.h.@X",
"# + @ @ : q 5 S ,.y.M.R.E.% e , p 6 f j ~ ~ w.6 7 . X @X/.(.^.(.Q.^.Q.L.",
"< X O 1 X X X X t ,.C.~ ;.S >.h d W.M C p m t B.@XJ.h.OXQ.^.G.Q.W.L.B.B.",
"X   O   @ : p a y Q >.q .X~.%XW.R.M.5 f D (.OXz.h././.Q.^.h.z.x.J.z.h.q.",
"X X O ; p : t g 3 :.d R =XR.J.C.r.u.5 (.H.h.z.^.W.h.h.h.h.z.B.z.Q.Q.L.B.",
"  X + . H W p V e.C.T h F 5.T R a 1 t.P ~.0 B.x.k.h.l.z./.}.Q.W.z.h.C.N.",
"- 3 7 Y @ D Q ! Z > ' o Q B t 3 q 0 1.= R.^.J.z.(.+XQ.L.M.J.N.y.x.W.L.M.",
"g m U 2 - o :.| d , | * , 0 l.S M t i Q.h.Q.Q.J.N.P.H.B.h.y.N.(.M.M.G.^.",
"@ f F S g y | 1., Z % > 0 h A 2 R Q.W.x.h.z.B.h.^.P.B.h.z.J.W.B.N.H.W.G.",
"D h Y d V p j J.O.G d w . $ 9.p.P.x.f.0.#.G.z.P.L.x.q.l.W.z.x.N.L.G.l.N.",
"9 N U B Q Q.J.P.B.#.P h.#.O.L.k.0.7.7.O.G.P.J.J.7.7.N.P.k.z.B.Q.C.M.B.z.",
"h 9 h.H.x.q.#...I h.&.#.B.h.0.6.&.#.O.X.G.^.x.h.z.B.h.x.G.B.L.l.y.B.G.6.",
"A G.C.G.G.x.h.3.O.{ x.h.7.6.7.6.6.7.{ x.W.G.L.z.p.C.B.B.h.N.8.h.B.G.9.q.",
"B.B.B.k.7.#.O.X.J.0.X.&.6.3.0.6...' &.B.z.B.y.y.h.C.G.y.G.l.y.x.B.q.6.o.",
"B.J.z.s.O.O.h.q.' O.6.h.0.7.O.&.O.#.O.l.N.h.x.B.0.q.z.z.9.z.z.x.8.6.#.h.",
"6.&.&.X.C.3.O.' O.0.h.#...{ ..{ O.O.g.y.l.y.h.0.6.0.6.G.C.B.z.h.7.7.7.0.",
"7...k.#...L | ..f.y.O...' O.X.3.' #.q.z.0.h.7.7.3.7.z.h.h.p.l.6.#.6.#.O.",
"h...I L L O.9.k.&.#.' ' I ..&.{ ..9.x.q.p.6.0.6.9.x.z.p.y.y.6.o.#.o.o...",
"L n L ' s.h.q.3...{ ' ..I ..7.O.O.k.7.q.>.7.h.h.h.q.y.y.y.7.I o.I o.o.>.",
"L L O.h.7.O.I I { ' I { ..O...' #.6.q.3.o.9.9.z.x.y.8.y.3...I ..| I 5.3."
};
