/* XPM */
static char *_98d8d6f47e54101a8405d7c293b26b1UB9dcBUBZmOYgNdN[] = {
/* columns rows colors chars-per-pixel */
"113 64 242 2 ",
"   c #040202",
".  c #0B0403",
"X  c #0E0804",
"o  c #070609",
"O  c #0A0708",
"+  c #0D0908",
"@  c #120503",
"#  c #130B04",
"$  c #1A0E03",
"%  c #170B09",
"&  c #130C09",
"*  c #161005",
"=  c #1B1204",
"-  c #1C130A",
";  c #19140A",
":  c #1E1614",
">  c #230901",
",  c #231403",
"<  c #2A1602",
"1  c #251A05",
"2  c #2C1B04",
"3  c #21160A",
"4  c #251B0B",
"5  c #2B1D0C",
"6  c #341B01",
"7  c #321D05",
"8  c #311D0C",
"9  c #201710",
"0  c #251A12",
"q  c #2A1E12",
"w  c #301F15",
"e  c #2E2006",
"r  c #2B220D",
"t  c #342104",
"y  c #33230C",
"u  c #392509",
"i  c #3B250C",
"p  c #3B280E",
"a  c #2D2412",
"s  c #2D2018",
"d  c #332513",
"f  c #3A2513",
"g  c #332A15",
"h  c #3B2C14",
"j  c #34261A",
"k  c #352C19",
"l  c #3B2D1A",
"z  c #3E3116",
"x  c #3C311B",
"c  c #3E3220",
"v  c #491811",
"b  c #442809",
"n  c #432B0D",
"m  c #4D320D",
"M  c #54310C",
"N  c #472B14",
"B  c #432D14",
"V  c #432E1A",
"C  c #522912",
"Z  c #443115",
"A  c #4C3314",
"S  c #43331B",
"D  c #4B351B",
"F  c #46391C",
"G  c #4B3C1D",
"H  c #543414",
"J  c #5A3517",
"K  c #543B15",
"L  c #5D3C14",
"P  c #53351B",
"I  c #543C1C",
"U  c #6D3F0D",
"Y  c #653B14",
"T  c #432F21",
"R  c #443421",
"E  c #4A3523",
"W  c #4C3C23",
"Q  c #4A3A28",
"!  c #543427",
"~  c #533D23",
"^  c #573B27",
"/  c #663624",
"(  c #753C2D",
")  c #4F401F",
"_  c #59431C",
"`  c #5B421D",
"'  c #6D4314",
"]  c #67471A",
"[  c #654B1D",
"{  c #734914",
"}  c #734619",
"|  c #744B1A",
" . c #7A4E1B",
".. c #7D531E",
"X. c #4E4023",
"o. c #4D412A",
"O. c #534325",
"+. c #5C4423",
"@. c #564826",
"#. c #5B4926",
"$. c #54452A",
"%. c #5A462A",
"&. c #57482B",
"*. c #5B4B2D",
"=. c #5F502F",
"-. c #4F4231",
";. c #544530",
":. c #5C4D32",
">. c #584835",
",. c #5F5033",
"<. c #624623",
"1. c #644A24",
"2. c #6B4D25",
"3. c #644729",
"4. c #644C2A",
"5. c #6A4E2B",
"6. c #724B29",
"7. c #6C5225",
"8. c #62512E",
"9. c #6C522D",
"0. c #725325",
"q. c #7A5524",
"w. c #72552C",
"e. c #78562B",
"r. c #75582D",
"t. c #7B5B2E",
"y. c #624530",
"u. c #614D32",
"i. c #684937",
"p. c #694C34",
"a. c #754936",
"s. c #635334",
"d. c #6C5433",
"f. c #6B5936",
"g. c #65553A",
"h. c #6A563A",
"j. c #67583C",
"k. c #6B5A3D",
"l. c #725633",
"z. c #785236",
"x. c #745A34",
"c. c #7B5D34",
"v. c #745C3C",
"b. c #7A5E3A",
"n. c #7F612E",
"m. c #7D6135",
"M. c #71603F",
"N. c #7C613C",
"B. c #7D4F42",
"V. c #6C5C41",
"C. c #6C5845",
"Z. c #705644",
"A. c #735D42",
"S. c #7B5D42",
"D. c #6F6043",
"F. c #746244",
"G. c #7D6444",
"H. c #7F6944",
"J. c #746249",
"K. c #7C654A",
"L. c #7D694C",
"P. c #7E6C52",
"I. c #776D63",
"U. c #815524",
"Y. c #825828",
"T. c #894C3B",
"R. c #865439",
"E. c #835B3B",
"W. c #90533F",
"Q. c #836334",
"!. c #84653B",
"~. c #87693C",
"^. c #886838",
"/. c #8B6B3D",
"(. c #906E3F",
"). c #8F713E",
"_. c #854E41",
"`. c #875B40",
"'. c #845D43",
"]. c #935443",
"[. c #826543",
"{. c #896444",
"}. c #846944",
"|. c #8C6D43",
" X c #826648",
".X c #8B644A",
"XX c #846B4C",
"oX c #8A6E4B",
"OX c #906D44",
"+X c #93674B",
"@X c #8E7044",
"#X c #8D714D",
"$X c #917245",
"%X c #93744B",
"&X c #96794C",
"*X c #997A4D",
"=X c #856E51",
"-X c #8A6E51",
";X c #946D52",
":X c #867152",
">X c #8B7354",
",X c #85725C",
"<X c #8C7659",
"1X c #8E795B",
"2X c #927554",
"3X c #947955",
"4X c #9A7B54",
"5X c #93765A",
"6X c #987758",
"7X c #957B5B",
"8X c #9A7E5B",
"9X c #8E7D63",
"0X c #947D61",
"qX c #997E61",
"wX c #998059",
"eX c #9B815E",
"rX c #A2845C",
"tX c #A1885F",
"yX c #968162",
"uX c #9A8667",
"iX c #9D8464",
"pX c #9B8669",
"aX c #9E896B",
"sX c #9F8A71",
"dX c #A18664",
"fX c #A28966",
"gX c #A18669",
"hX c #A48B6C",
"jX c #A88E6C",
"kX c #A7906E",
"lX c #A9916D",
"zX c #A48E71",
"xX c #A88E72",
"cX c #A69174",
"vX c #AA9374",
"bX c #AD9579",
"nX c #AE997D",
"mX c #B09778",
"MX c #B19A7C",
"NX c #AF9B83",
"BX c #B29D82",
"VX c #B5A188",
/* pixels */
"<X:X:XXX:XXXXX=X7XuX XN.G.N.N.[.[.1.' | L 2 < 7 < y y 2 i 7 u i Y ' } U...q.w.#.C.J.V.j.V.*.:.:.:.:.s.*.*.s.X.*.*.$.*.*.Z O.S g.W $.S =XzXxXcXiXgX2XhXgXhXjXeXdXjXdXdX7XXXf.I +.2 = . . + O .       .       o   . O         o     ",
":X:X:X>XXXXXXX:X:XyXXXG.G.G.S.G.[.b.M { { < < 7 7 7 7 8 8 7 b } 6.q.U.Y.x.4.%.g.k.j.s.V.s.s.:.:.V.:.&.*.k.*.j.u.*.f.*.$.W W $.O.z S l W pXhXhXgX>X5XqX8XjXdXdXhXfXjXiX8X[.^ y = - ; & = h & r X   +   o         o                 ",
">X>X:X=X:X:XXXXX:X7XuXA.G.A.G.G.K.G.` } { u < 7 6 < < 2 2 C '  . .q.e.x.o.j.g.g.j.g.g.:.k.s.s.&.g.s.$.&.k.W :.,.s.%.&.W Z O.#.F G W Z O.XX>XaXhXuXiX7XuXuX7XjXhXiXeXiX#X~ 4 $ $ # $ 3 d Z = d = 3           o               o   o ",
">X:X:X:X>X=X:XXX:X:XuXXXG.XXG.G. X[.x.H ' M < 2 2 2 < 7 J  .U.U.q.b.;.V.k.V.g.s.*.s.u.s.:.:.:.*.#.k.V.s.*.:.&.s.u.$.s.%.F $.@.G l f f j S :X<XxXyXhXuXhXiXuXuXgXhXgX>X:XE = # O X ; $ 5 6 2 2 h g X   .             o             ",
"#XXXXX=X>X=XXX=X:X:XeX7XG.G.XXG.XXG.G.` L { i < 7 7 6 U } U.Y.c.s.s.V.D.j.,.g.s.V.,.s.k.*.s.g.j.&.u.s.s.#.*.$.,.F S O.W W W O.S R R l l x Q L.yXiXiX7X0XiXfXiXgXfXoX>XA.l j d # = 4 y ~ ~ < d S 5 a $         o         o   o     ",
":X>XXX<X:X=X:X:XXX:X1XiXK.G.XXG.G.XXXXl.] ..H < 6 b U { ....b.:.k.D.g.k.:.A.k.s.g.:.:.g.@.f.f.s.$.s.s.$.W &.*.$.O.G $.V O.O.W Z F S D l j 5 r L.7XuX7X7XuXhXdXjX8X2XG.V S 9 0 - = 4 2 f ~ S G = 5 a 3 4 X +         o o     o     ",
"<X<X:X<X:XXX=X=X>X>X<XiX5XG.XXXX XXXXX[.L ' Y 6 M '  .| e.s.V.V.V.j.J.V.:.j.s.g.s.:.s.V.:.$.*.k.*.*.s.k.V.:.:.g.:.:.~ S X.Z Z h S W S a d 0 3 f =XuXyXiXhXdX>X2X:X>XXXh.5 3 X & ; 3 p ` ` i f 2 y 2 t l f # X + o   O     o   o o ",
"<X:X<X<X<X>X<X>X:XXXXX7XyXXXG.XXXX XoXXX<.Y ' {  .| | 9.#.k.k.k.V.j.*.k.s.:.s.s.*.s.s.V.*.*.s.s.*.$.*.F.P.:XJ.s.$.O.%.W W Z S h W ;.j R s 3 ; X = XX5XuX3X X#X#X7XeX7X7Xh., - 3 = 2 +.i ~ B 2 t t u K h , = & X                 o ",
"<X1X1X1X<X1X:X>X:X:X=X1XuX:XXXXX XXXXX-Xv.H | { ' 0.v.F.k.D.j.V.j.k.V.k.k.V.j.s.&.:.,.g.:.:.g.:.k.&.$.F.1X<XK.s.V.O.W S S W W V R l Z 1 4 * X . . 3 g.XXG.:X5X:X>XyX0XK.1X~ d $ 2 7 y +.Z h 2 K ` ` +.V 4 - = .         o     o   ",
"1X>X:X<X<X:X<X>X<X:X:X:XyX7XL.XX-XXXXXXX>XI ' } N.s.F.k.A.k.s.k.V.j.V.F.s.k.k.F.:.:.f.*.s.s.*.%.:.W ~ v.1X1XXXF.A.$.W l h W h h p r 5 4 - & O   O o : -.V.7XeXuXeX3X3XXXd.` V i 2 1.I , 5 V ~ 1.1.1.1.` < p y .       .           ",
"1X<X<X<X>X:X<X:X>X>X>X>X5XuXXXXXXXXX=X>X>XA.v.s.V.k.g.k.V.V.g.j.V.V.V.s.j.g.A.:.s.&.&.:.:.s.4.*.W $.Q >XqXyX>X=XK.:.W l F h k y r a 0 * X & .           >.G.5X7X5X>XXX-Xf.F.s.~ D 1.A 5 l f.Z O.D ` n p 6 7 4 #                 o ",
"1X7X<X:X:X<X:X<X:X>X:X>X>XiX7XXX=XXX-X:X:XF.&.V.F.f.f.F.s.,.j.g.k.,.s.V.k.s.s.f.s.s.$.*.:.$.s.W :.O.=XiXfX5X:X-Xv.s.~ 5 q a 5 f 5 5 = - & & . .   .   & X h A.<X7X>Xv. XN.}.b.x.c.6 h ` d.t D I I t 2 ~ Z p V $ X .       o o     ",
"<X<X<X<X>X<X<X<X<X>X:X:X>X5XgX-X:X=X>XXXs.j.k.F.k.k.V.s.V.s.g.g.g.s.j.s.g.s.k.u.:.:.:.W #.:.W $.W 5XhXhX;X.X-XXXv.V # 0 &.Q - q 4 , # # + & . O . .       & # g.s.$.~ =XK.v.v.G.4.V 9.9.9.4 p D y 2 2 n i 4.Z #   X .         o   ",
":X1X:X<X:X<X:X=X>X>X<X>X=X1XpX7X=X>XA.>.V.k.V.k.g.g.g.s.k.g.:.s.s.s.s.j.k.k.:.:.>.;.k.:.,XE x l yXgXhXqX8X8XdXfX7XG.# D G.G.u.Q Q - : . .     O . .       +       - a k.f.u.S k.B 5.G.9.$ V A , , 2 u y [ #.= 3 X - .   o .   o   ",
"<X:X<X:X1X:X>X<X:X:X:X:X:X>XuXpX=X@.:.F.F.k.f.k.k.g.g.s.k.V.g.s.k.s.s.,.s.:.s.g.s.:.&.pX5X7XV z hXhX5XgXxXhXjXhXfX8Xv.u.v.}.N.s.O.j r - . .   .   . . o O o       +   - 2 W %.u.%.oX+.h D 5 f 2 e h _ 9.[ n # , 1 = $       .     ",
">X>X<X<X>X:X1X>X>X:X:X:X>X1X7Xv.#.k.F.k.V.F.k.V.j.j.f.s.g.j.s.g.s.,.V.V.*.*.*.g.*.<XXXXXXXv.c.0 <XjX7XfXjXjXjXjXjXiX@Xc.@X}.N.%.&.:.l 4 X . . . . . . . O               # &.4.c.N.+.S ~ h V , , y I I ` t 1 t h Z # .   o       . ",
"<X:X>X:X<X:X:X<X:X>X>X>X>X=X$.h.k.f.F.f.j.j.V.k.:.V.s.s.j.k.k.k.:.V.*.,.g.k.,.:.$.u.<X0XA.>X5.= 3 5XeX7XiXhXfXjXjXeXiX@XoX[. Xv.4.+.l l 3 # . . . o o . . . .   o       . 5 y v.f.B d.+.D i 2 A 4.4.K ` , D B Z h   X . ;     ; X ",
":XXX:X>X:X:X:X<X<X>X:X<Xk.s.F.M.F.g.A.g.V.s.j.k.g.g.*.V.V.*.k.:.g.,.s.g.h.:.$.&.s.s.p.l.0XXXK.B $ G.XX#X7X7XdX7X8X8XdXeXeX7XoXN.x.d.O.Z 4 $ # X O . . . + . O             . 5 Z 5 V k.1.+.A i N r.7.L t K A A A 2 , . * &       * ",
"XX<XXX:X:XXX:X<X1X>XG.s.V.k.g.h.M.s.s.s.*.s.j.g.s.k.g.k.:.s.f.k.:.:.:.j.:.:.s.*.s.-XP ^ K.=XG.~ X $ $.=Xf.>X:X7X#XeXfXdXeXfX3X%X[.N.d.O.5 0 # . & . . X   . . .   .         ;   # 2 ` ` 5.I u ` 2.] 7 H ` K K K F $ p 1 * .       ",
":X:X=XXX>X<X:X>X5XF.s.A.f.f.f.V.V.V.s.s.s.s.g.V.g.k.k.s.:.s.s.:.,.:.g.:.s.:.:.:.~ a.y.y.Z.Z.XXf.X # - 4 *.F.G.2X2XeXgXvXjXfXjX7XXXf.D $     : X O & & & . . . . . + +   +         ~ 1.` +.+.<.t.` m t.0.[ m n #.A , p g 4 $ & X X ",
"-X>X:X:X:X=X>X:Xs.M.4.v.v.s.f.s.M.f.f.s.s.g.k.k.s.:.k.s.:.g.:.h.u.k.g.:.:.;.:.$.S a.y.A.i.Z.u.p.t X $ $ $ 0 *.v. X>X>X3XgXvXvXeXG.R =           # $ = = . .       +   .   &   o   $ W 1.A r.] 6 b q.q.0.[ n 2 I f.Z Z d , 2 1 j 1 ",
":X>X<X=X>X=X<Xh.A.v.k.k.h.:.A.s.s.j.s.s.s.k.u.s.:.s.s.,.s.s.j.:.:.:.O.*.:.#.*.$.O.6.^ p.^ u.y.l k & & # # X & j = ^ x.N.}.#XuXjXwXS.4           o . # 3 0 - 3     . +           . 4 h D 0.0.A < 0.e.2.H n , b 9.b.D %.Z #.D *.` Z ",
">X:X>XXX:X:Xk.v.k.k.f.s.g.g.V.j.:.:.k.g.s.:.s.j.s.s.:.:.s.s.j.,.s.g.&.:.O.&.$.W p.( ! p.Z.A.E q q - & & & & + I.X X q u.N.G.#X3X7X2Xx.-                   . 0 $ & . . . &       # 5 D <.` ` e.] q.0.L < $ S 7 9.N.+.5.x.` 5.9.1.#.",
"=XXX=X=X=XXXk.k.f.s.f.s.k.f.,.s.*.,.k.s.s.g.*.s.s.,.s.:.k.V.V.s.*.*.s.u.W :.:.Q 5X/ 2 %.y.^ $.4 k 4 y 5 3 ; $ * X X a N.N.7XgXhXaX#Xv.4.q .                   . $ ; .   + o . . X k F ` 2.H A 0.] i , , ~ , 2 9.x.9.x.c.0.r.w.0.` ",
"=X=X>X=X:XF.f.d.f.s.s.*.s.s.s.s.:.*.k.s.s.u.$.:.g.:.:.s.L.V.:.u.:.:.*.d.~ S l R p.J 8 D S q d a 0 j S S f 5 4 0 # X s XX*XeXvXvXkXfXwXI j , X & &                 &   .       . = Z y A A r.[ [ i @ O.1.$ . B l.c.N.XXc.m.!.!.m.2.",
"XX:X>X=X:Xv.k.s.s.s.s.s.:.,.,.s.f.*.s.s.u.*.:.:.*.:.s.s.j.J.k.s.k.*.$.u.D V f j q w - d h a 3 q T ~ I n D l.+.3 # Q B D |.eXvXvXjXaXuXXXi f V i d 3 .                           $ D Z D 1.r.` = $ 7.` 3   X , 9.N.!.|.N.|.!.}.^.e.",
"XXXX:XXX:Xx.8.4.s.d.4.*.8.s.s.8.s.*.&.s.,.s.:.s.*.*.:.g.j.J.P.P.v.d.4.I 4.B 8 f l q $.j j R Z R l A.D D K }.# 4 s.# D # 2.tXlXlXlXhXfX7XG.h V D , A 2 j # #             o       + 3 y 2 B +.2 d 1.p < #   . 4 9.N.@X!.}.|.~.|.N.c.",
"XXXXXXXX:Xf.s.8.8.s.8.*.s.s.g.:.,.,.:.s.s.s.*.*.,.:.$.F.J.J.,X1X7XG.I i 8 2 2 3 Q V E G.XX0XiXhXhXxXzX:XB +.4 ~ T 4 $ E XXhXvXvXgXhXfXyX1Xf.A A A N < < B n 2 < 4 , .     o       = S < t $ 2 I t t X       X d.!.}.}.@X$X|.~.~.c.",
"L.XXXXXX Xf.9.8.s.4.@.8.*.:.:.:.:.:.*.:.:.=.*.#.*.,.u.V.V.K.0XuXuXpXA.I 1 4 l 4 S v.XXbXBXBXcXMXnXnXbXbXqXI c.P E S D 5.3XlXvXlXlXhXgXhX>X#Xx.` 7.P K u B < K P P n 2 1 ; + + X 4 3 = 1 2 D b u $ $ .     X . 5.N.9.}.oX|.|./.Q.Q.",
"=X=XXX=XXXd.d.*.s.4.*.8.*.*.@.#.*.*.&.$.*.:.*.*.:.*.*.s.K.P.9XpXsXyXpXu.+.~ d.5.G.1XNXVXhXMXnXbXMXbXbXxXhX:X+.2Xd.4.hXXX5XvXvXvXvXhXfXaXeXyX:X Xb.N.w.D i < B N u 3.+.*.~ j W 5 S +.1.r.1.5 1 , @ . . . . $ 4 d.w.9.$X/.|.|.|././.",
"=X=XXXXXXX9.f.8.s.s.*.*.O.@.#.@.O.*.@.&.&.&.:.*.s.:.j.u.J.L.yXaXzXaXqXyXyX7XiXhXbXnX3XBXbXBXMXMXMXmXlXvXhX7X7 d.K.vXvX=XN.vXlXlXjXjXgXuXyX7X7X>XG.d.m.s.B u n <.I x.[.b.1.1.~ K ` c.| c.0.d # X . X   . # u h c.r.r.$X/.@X/./.)./.",
":XXXK.u.G s.s.8.f.@.@.8.#.@.=.*.&.&.&.O.$.*.&.*.:.s.g.K.J.0XuXaXsXzXzXhXzXcXcXnXnXBXnXnXMX7XBXBXbXvXvXvXhXxX! f iXiXgXuX8 iXlXvXvXhXhXyXyX5XqXyX>X}.5.v.9.B f D N.}.}.}.G.v.5.+.1.` Z ` A 2 3 . + . * = = ~ O.N.|.!.|.^.&X/./././.",
"&.W S S h &.s.#.$.*.:.#.*.:.#.O.&.*.*.$.o.O.$.$.$.$.P.K.<X9XaXzXzXaXcXcXzXnXbXbXvXbXbXcXbXBXMXvXvXhXvXvXhXiXd.h.gXfX6X%X2Xc.jXmXlXjXgXhXuXyX7XeXeX>Xb.N.}.m.l.<.9./.!./.}.x.2.9.9.+.Z B K B # . . ; , Z G I x.}.~.Q.Q.Q./.|.|.$X/.",
"R S W S h S s.*.8.*.@.@.*.,.O.$.,.*.O.W $.$.F O.&.$.V.V.yXuXaXaXzXzXcXcXcXaXbXnXbXmXxXcXMXhXbXbXMXbXxXvXcXgXgXgXhX6X+X;X+X XdXdXvXxXuX7XdX7XyXeXiX>Xv.B }.XX3X#X}.N.}.N.9.1.f.9.9.+.B K I D = , = = $.W D O.[.c.Q.^.^./.$X%X|.@X/.",
"S S z S x d s.#.#.*.&.@.@.O.&.O.O.@.@.$.$.$.$.W W $.:.uX,XpXaXaXaXaXzXcXcXcXcXcXbXbXxXcXxXMXBXbXBXbXbXxXhXgXhXhX5X;XW.].].R.dXjXuXgXuXuXhX7XiXeXeXwX3X:Xd.!.@X@X}.x.~.N.x.d.d.+.+.` I V F Z 1.u O.B D A 9.m.m.m.|.}.}.|.$X%X@X$X$X",
"S Z x d a a &.@.#.*.#.@.$.#.O.W $.*.$.X.o.o.X.o.W $.s.V.aXaXhXhXhXaXaXaXcXcXvXhXgXnXcXvXvXvXvXMXbXbXxXuXiX7XiX8XrX.X> T._.a.'.xXhXuXyXqXyXuXiXiXiXeXwXoX+.9.b. Xb.#X}.N.5.x.d.9.3.+.I +.Z Z D ] 6 1.H.2 4. Xb.}.@X@X/.|.$X$X@X/./.",
"x S l l f a G O.&.O.@.) G @.@.@.O.X.O.W O.X.W $.W :.s.=X<XaXaXhXhXzXhXhXcXbXvXhXlXvXhXhX7XgXvXMXhXbXvXcXxXuX3X8X4XoXR.+X_.N H vXvXhXuXhXeXeXuX7XuXfX3X}.r.4.9.c.c.b.b.c.c.9.4.d.5.5.5.+.B B Z F 7 +.+.< w.N.@X%X@X%X%X%X%X@X~././.",
"R x l g d a r *.O.@.#.O.G G @.O.G G X.$.F F W o.F *.h.0X0XpXzXcXxXgXvXhXgXhXcXcXcXcXvXhXqXoXqXMXvXMXvXhXqX2X6X6X2X.X`.( ( %X#XjXvXhXyXhXgXyXiXiXgXyXeX3Xc.1.5.9.x.w.c.x.c.x.d.x.1.9.9.+.V A b.@X[ 2 4.9.9.N.}.&X$X$X%X$X%X$X!.|.$X",
"g l x k g j 4 &.@.O.O.O.G X.X.$.W W $.$.W *.W W R ;.j.P.yXhXzXzXcXzXhXhXcXhXgXuXhXcXxXbXvX}.S.hXvXhXgX-X6X6Xz.S..X.Xa./ +XdX6XrXvXhX7XuXuXyX#XeX7XfXuX2X}.I 4.1.9.l.x.c.c.c.9.c.9.1.9.+.I B u /.|.A <.+.+.@X}.%X$X$X$X&X/.$X~.^.^.",
"k x k l d d a h &.O.X.O.F ) X.G X.X.G W o.W W o.R Q f.F.=XaXhXzXcXcXcXvXhXhXvXhXbXvXgXxXvXdX}.b.dXjXiX>X.X4X;X;X.X`.T.( +X6X2X8XlXfXgX3X7XjXeXeXiXfXrX3X#X+.G +.*.l.l.c.c.9.d.b.9.4.5.+.+.D V N.@X3Xx.v.K 3XN.$X4X4X$X&X%X/.|.$Xn.",
"x f g x x g a 5 o.@.O.O.O.O.o.G O.S F W W W o.F z S $.XX0X0XuXhXhXhXhXuXgXaXcXbXvXvXbXxXhXhX8X.X[.'.'.S.a.i.^ ! ! / _.v R.8X;XqXrXjXuXuXuXgXuXyXyXyXiX3X}.d.+.9.l.d.l.c.x.d.v.x.d.9.+.+.+.K y @X&X4X3X5.1.@X!.$X4X$X&X$X$X~.@X|.|.",
"k f g d k g r r X.G G O.X.G G X.F G G Z W W o.z z h z *.=XpXhXyXyXcXxXhXcXhXhXgXhXhXlXjXhXfXdX4X|.oX[.{.`.'.6.z.`.'.B.a.J E.p.eXhXXXaXyXuXgXuXuXuXeXeXwX}.b.+.5.<.4.l.v.2.0.x.x.1.4.4.+.+.` +.c.3X%XrX$X1.&X~.&X&X/.&X*X/././.$X|.",
"l k g g j g r r 2 O.O.X.G Z F W W F F F S S S S S d l j $.K.uXzXcXiXhXcXhXfXiXiX7X4XgXgXjXvXfXjX|.4X6X4X;XOX+XR.E.z..X'.P <.c.gXxX-XhXgXiXiXgXiXfX7X8XeXXXc.~ d.*.~ d.9.l.l.c.b.1.9.5.5.1.I +.4X3X3X2X4Xx.}.@X&X|.!.$X@X@X~.|.$X^.",
"c k g g a g g k 4 S @.X.F G S F S S W F S F l j g h d r a o.k.0XgXgXuX5XjXlXfXlXiX3X|.2XeXeXeXdXdX4X$X%X*X(.z.Y z..XE.+Xe.P oX5XeXjX5XhXuXgXiXeXiXdX3X4X}.x.B B +.5.I d.5.9.9.9.3.1.w.9.+.` I w.%X4X&XwX%X2.%X|.|.$X@X@X@XQ.|.$X/.",
"k k g k g a 4 a r d W W F F z S S R l x Z S l k a c a j Q L.yXaXpXaXhXhXgXkXhXvXuX8X3X}.!.oX2X5X2X4X2X|.%X&X/.R.E./ E.&Xa.^ iXhXlXx.hXhXuXuX3XiXiX3X3X|.|.d.x.f B +.1.5.9.1.5.5.5.l.1.9.+.I +.<.*X&X%X%XeXx.|.&X&X$X/.$X^.$X&X$X).",
"k g x g g g a a r 1 G F S F S S S S l S l c k d h o.*.F.<XuXzXhXgXuXyX8X3X7XfXjXfXb.>X8X5XeX5.l.c..X[.{.{.%XOXE.2.OXOXOX3.f dXhXhXiXgXhXuXaX7XeX5X2X%X>X XN.oXl.%.+.+.9.9.5.5.d.d.9.c.9.2.1.P 5.!.%X3X3X[.*Xr.$X|.|.|.*X$X$X$X@XQ.",
"g g x k k x g a r 4 r F Z x x h x x l f k k j a x ,.S 1XpXuXuXhXhXhXiXeXyXuXuX7XeXiXiXdXoX4X2X2X5.4.XXb.c.!.!.c.!.|.~.b.B c.8XhXfXhXuX3XfXeXyX>XeX3X&X3XN.l.}.f.+.B I +.9.9.5.9.1.9.<.5.2.5.+.I c.%X$X4X&X|.!.|.~.~.|.&X$X@X%X$XQ.",
"g g r k r g d a r 3 = d Z x S g h k k f r r a x o.k.:X:X1XuXyXyX7X7X7XuXfXgXgXhXgXuXgXiXeX[.8X%XoX8XoX@X[.l.l.l.5.9.4.i N oX#XeXx.dX7XeXfXiXeXiXeXeX3X2X}.N.oXx.f.9.<.4.5.9.9.5.+.1.2.0.m.2.c.c.|.c.&X$X%X%X&X/.~.Q.|.&X&X$X/.~./.",
"k d g g k g a g a 4 4 - d f g g d y x W F z S f g X.F.7XuXuXuXhXgXuXiXgXgXuXaXaXaXhXpXhXgXuXuXuXeXiXfX8X8X3X2X2X[. X}.[.4.2X4X4XrXiX7XhX8XuX2X3X8X8X>X>XoXb. XN.G.5.d.5.l.l.d.d.l.9.1.1.0.0.0.~.$X~.c.4X/.&X$X&Xc.@X&X$X%XQ.Q.~.m.",
"d r x a r g r a g a 4 - r S x x g y d y h f , # = S *.=X7X7XyXuXuXuXfXiXuXyXaXxXuXuXgXgXhXgXgXhXgXgXhX2X2X}.2X7XiX3X}.}. X#XeX}.fXiXfX3X7X XeX7X8X3X#XXXXXd.l.N. X9.d.9.d.v.l.w.9.c.5.N.2.w.0.c.|.%XE.5.&X$X$X$X|.~.&X&X|.Q./.$X$X",
"k a j g a g a a 4 3 4 - = r # $ @ @ @ # @ X X . $ j W :XeXiX7XyXeX8X2X2XoX8XuXgXgXuXuXgXeX%X|.8XdXuXeX&XdX6XiX>XdXiX%X}.2X3X8XiX>XG.gXuXuXyX#X4X7X3X>XXXN.b.x.XX}.l.b.9.x.b.l.w.9.w.w.x.r./.!.}.4X|.}.r.e.Q./.&X&Xe.|.*Xc.!.@X|.|.",
"g j x g g d r r r 4 & @ @ @ X . . @ . . @     . & q j.:X7X0XyXyXyX7XyXfXyXuXyXyX4X8X%XoX#XfX2X[.iXgXuXiX5XfXeXfX8X8X6X2X#X8XiXgX7XjX2XuX[.5X5XeX3X>X#XXXG.:XG.#XG.x.l.d.x.x.x.5.5.3.w.!.r.0.r.Q.@X&X&X/.!.c.Q.OX$Xe.!.%X5.Q.|.$X@X",
"g g a r a a d 5 # . O @ # # @ @ . . X . .   .   + s C.:X0XyXiXuXpXgXaXdXeXeX3X8X8X}.iX8XdXhXeXfX2X2X7X6.3.l.oX8X2X8X#X8X8X2XiX7X2XXXuXqXeX7X3X>X7X5X#XXXH.3XXX#XG.G.9.x.9.d.b.x.5.4.d.w.w.x.r.!.c.$X*X4X/.Q.e.^.$X&X$X&X2.|.$X/./.",
"d r a a g a $ . . . @ @ $ @ . X . O . .       . O . . - E >XyX7XqXeXeX8XdXfXeX2X}.gXjXiXdXdX6X>X3XN.dX8X2X-Xl.dX!.iX[.uXoX3XfXgXfX7X2Xb.gXiX8X8X7X>X:XG. X>X:XoXoX[.x.N.b.5.c.x.l.9.9.w.0.r.6.e.t.^.$X%X4X&Xr.|.@X~.$X$Xe.Q./.^.$X",
"k a g r a $ . . # # . . X . . . O . +         o . . & X 5 g.7X7XyXuX2X8XeXiX3X#X8XfX%X8X2X%XdXoX6X>XfX%X4XhX8XeX%X5XgX3X>XXXyXuXuXyXoXgX#X3X X}.3XoX#XoX[.>X#XoX}.}. X[.9.5.c.b.b.}.b.|.}.~.t.e.Q.Q.^./.$X&XQ.2.*Xc.|.$X/././.|./.",
"j a g r * & . @ @ . @ @ . . . . . . . . . .   .   . . X $ 3 :.3X8XeX>X8XrX%XeXdXiX3X8XiX7XfX4XdX2XhXeX4XdX4XdX8XhX>XjX}.7XiX3XiXgXqX7X7X8XwX8X%XoX2XoX:XXX2XoXXXN.}.}.}.3.w.9.x.l.!.N.r.c.$XQ.t.0.^.^.^.$X~.$Xe.$X$X^.$XQ.|.$X$X~.",
"g j d 3 @ @ @ . # @ @ @ . . .   . O     . .   . . .   & . = k uX0XiXfXgXfX4XjXfXoX}.dX6XrXiXiXgXhX8X2XgX7XdXuXiXhXdXdX X8XiXiX7X8XoXqX5X7XoX7X2X2X>X#XXXXX2XG.XXN.b.|.}.l.+.9.l.b.}.[.}.[.|.$XQ.0.t.Q.^.OX$X$Xc.t././.^.0./.$X$Xe.",
"a r d # # @ @ # @ @ . . @ . .   .       O         .     + 0 :.iXfXfXeX7XgXfX%Xc.3XxXgXoX XhXuXdX8XiXdXiXjXiXhX>XoXgXdXdXd.#XgXgX7X7X5X3XeX}.}.#X[.>XXX2XoX}.w.XX XN.[.N.w.9.` 9.b.[.#X|.|.}.c.c.e.[ t.Q.^.$X/.$XQ.Q.Q.Q.Q.^.^.).^.",
"d a $ $ @ @ . @ # . . . O . .   . . . O .   . . .       # q L.=XyXiXeXuXiX8X@XfXfXhX}.oXfX7X7XuX8XdXdXiXgXuXyXiX5X7X>X7XyX7XqXiXiX7XqX2X8X3X8X2X2X[.:X3XoX[.v.XX2X#X[.N.w.2.<.x.!.OX%X|.|.|.Q.^.Y.e.e.^.Q.^.^././.Q.~.^./.Q.Q./.^.",
"d $ # . . # @ . . . . . . . . O . . . . .     .       . 3 4 3 yXaXgX8XgX7X2XeXjXjX3X}.hXgXdX2XuXdXdXqXuXuXyX5X-XuXuXiX}.iX>XiX7X7X7XyX3X>X2X|.XXoX}.3X2X#XXXoXXX7XoX!.!.c.l.3.9.c.!.%X$X|.|.Q.^.^.Q.Q.Q.|.~.Q././.~.m.r./.|.Q.~.Q.",
"4 @ . @ @ . . @ . . . . . . . . O . . .   . .   .     & . X $.aXyXyX8X7XiXgXuXgXiX>XdXoXdX-XhXgXdXdXyX7XgX7X5XiX5XiXuXdX8X7X2XyX7X3X3X>X2XoXoXoX[.[.x.>X2XoXoX#X7X2XoXoX[.N.5.I l.!.|.|.|.|./.Q.e.| e.~./././.Q.Q.Q.c.Q.Q./.|./.Q.",
". . @ @ @ . . . . . @ . . O O . .   . .     O . . . . . # X j.1XaX7XqXgXhXiXgX8X#XdXgX2XgXiXiX7XdX7X8X2X7X7X5X7X-X5Xx.8X.X#XeX>X5XXX7X5X%X2X2X[.#XXXXX#X2X#XXX2X6X>X2X2XoX|.b.<.c.c.|.|.~.|.~.Q.Q.2.0.Q.^.Q.OXQ.Q.Q.Q.r.^.^.|.^.t.",
". . O . @ X . . . . .   . . . .   X       .   O . .   . - ; = ,XuX7X3XdXuXeXiXiXqXhX2XeXdXdX5X5XXX7XgX5X>XqXgXgX>XS.6X3X6X2X2X8X7X2X7X>XoXoX-XXX[.XXb.5X2X2X.XoXoX2X>XoX[.|.[.c.l.x.!.|.}.|.|.~./.Q.Q.Q.Q.^.$X/.c.Q./.^.^.^.Q.~.!.",
". @ & . . % . O O . . . . . . . . o       .   . .   O & . - R 5XeXuX8XiXuX>XhXiXiXiX>X8XiXdX8X7XXX[.yXhX8X5X2X5X>XdX[.fX5X8X7X7X7X5XoX>X2X2XG.b.[.oXoX>X6X#X!.#X#X2XoX2X|.[.[.N.5.9.w.!.}.|.}.}.Q.(.Q.Q.Q././././.Q.Q.Q.Q./.Q.Q.^."
};
