/* XPM */
static char *cbc2d4d054ed421ed47fa9da841716e8SPmJMzDeLcIBQxr7[] = {
/* columns rows colors chars-per-pixel */
"36 64 235 2 ",
"   c #040101",
".  c #0C0201",
"X  c #130302",
"o  c #1A0301",
"O  c #150A04",
"+  c #1B0B04",
"@  c #1A0E09",
"#  c #1A1008",
"$  c #210601",
"%  c #230D02",
"&  c #2B0E03",
"*  c #2D1302",
"=  c #22150C",
"-  c #281609",
";  c #2B160A",
":  c #331402",
">  c #371806",
",  c #3B1903",
"<  c #261911",
"1  c #2C1C13",
"2  c #301D13",
"3  c #3D220F",
"4  c #3B2617",
"5  c #332319",
"6  c #3D2E21",
"7  c #431401",
"8  c #441D02",
"9  c #4A1D02",
"0  c #531D02",
"q  c #4C2203",
"w  c #492206",
"e  c #542503",
"r  c #5A2501",
"t  c #5C2A02",
"y  c #532B0B",
"u  c #5A2D0B",
"i  c #5F310B",
"p  c #442A19",
"a  c #4B341C",
"s  c #632803",
"d  c #632D03",
"f  c #6A2E03",
"g  c #643104",
"h  c #6B3303",
"j  c #6D3B03",
"k  c #653208",
"l  c #69360A",
"z  c #6C3C0D",
"x  c #743B03",
"c  c #793D03",
"v  c #743B09",
"b  c #703E14",
"n  c #452D21",
"m  c #483629",
"M  c #553A27",
"N  c #4C3D31",
"B  c #633C22",
"V  c #764103",
"C  c #7C4303",
"Z  c #774309",
"A  c #7B440B",
"S  c #7E490B",
"D  c #6F4112",
"F  c #7D4514",
"G  c #794917",
"H  c #4F402E",
"J  c #5D452D",
"K  c #5E492B",
"L  c #534232",
"P  c #594434",
"I  c #5E4934",
"U  c #5C4638",
"Y  c #5E4A3C",
"T  c #67462A",
"R  c #634A2C",
"E  c #674B32",
"W  c #634B34",
"Q  c #634D3D",
"!  c #694E3A",
"~  c #7A4C34",
"^  c #6C5236",
"/  c #66513C",
"(  c #6B533C",
")  c #6F593C",
"_  c #725434",
"`  c #73563C",
"'  c #7D563F",
"]  c #745A3D",
"[  c #7A5C3C",
"{  c #7C613F",
"}  c #584A41",
"|  c #644E41",
" . c #655242",
".. c #6B5443",
"X. c #6E5944",
"o. c #675749",
"O. c #6D5749",
"+. c #6E594A",
"@. c #715741",
"#. c #735B44",
"$. c #795E43",
"%. c #715749",
"&. c #735D4B",
"*. c #795F4A",
"=. c #745E51",
"-. c #7A5E53",
";. c #7B6146",
":. c #76614B",
">. c #786348",
",. c #7B634C",
"<. c #766153",
"1. c #7B6453",
"2. c #7E6954",
"3. c #756359",
"4. c #7D6659",
"5. c #7D6A5B",
"6. c #7A6760",
"7. c #814603",
"8. c #844A04",
"9. c #894D04",
"0. c #854708",
"q. c #844C0B",
"w. c #8D5305",
"e. c #85510D",
"r. c #8D530B",
"t. c #91550B",
"y. c #935A0C",
"u. c #985D0F",
"i. c #854E14",
"p. c #824D19",
"a. c #865213",
"s. c #8C5413",
"d. c #895419",
"f. c #8E5B1B",
"g. c #955A13",
"h. c #945C14",
"j. c #945B1A",
"k. c #9C6213",
"l. c #9A621A",
"z. c #A0661E",
"x. c #8F5B22",
"c. c #955D22",
"v. c #805F35",
"b. c #825F41",
"n. c #826546",
"m. c #82664C",
"M. c #82694D",
"N. c #8A6949",
"B. c #8F6F4F",
"V. c #836B54",
"C. c #846956",
"Z. c #886D52",
"A. c #836D5A",
"S. c #877256",
"D. c #86715C",
"F. c #8A735C",
"G. c #95755C",
"H. c #A27E5B",
"J. c #856F61",
"K. c #847263",
"L. c #8C7564",
"P. c #8E7963",
"I. c #8E776A",
"U. c #8F7A6A",
"Y. c #927663",
"T. c #947B65",
"R. c #9A7D66",
"E. c #927769",
"W. c #947C6A",
"Q. c #997E6B",
"!. c #957E72",
"~. c #997E72",
"^. c #A57765",
"/. c #A9835F",
"(. c #978066",
"). c #9C826C",
"_. c #968171",
"`. c #9C8373",
"'. c #9E8974",
"]. c #9D8579",
"[. c #9D897A",
"{. c #A3846C",
"}. c #AA8569",
"|. c #AD896C",
" X c #B1856B",
".X c #A08676",
"XX c #A58675",
"oX c #A28A76",
"OX c #A28B7D",
"+X c #AB8E79",
"@X c #B7957A",
"#X c #C09B7F",
"$X c #A48E82",
"%X c #A69185",
"&X c #A99285",
"*X c #AA9385",
"=X c #AE9987",
"-X c #AA938A",
";X c #AB9589",
":X c #AC968A",
">X c #AA968D",
",X c #AD978D",
"<X c #AD998B",
"1X c #AE998E",
"2X c #B59986",
"3X c #BA9B84",
"4X c #BE9F8A",
"5X c #AA9791",
"6X c #AD9A91",
"7X c #AE9B94",
"8X c #B09C95",
"9X c #B19E98",
"0X c #BFA38E",
"qX c #B9A499",
"wX c #B9A6A0",
"eX c #C19E85",
"rX c #C7A58A",
"tX c #C2A28C",
"yX c #C4A692",
"uX c #C6A995",
"iX c #CCAC95",
"pX c #C2A698",
"aX c #C5AB9C",
"sX c #CBAD9B",
"dX c #CDB19D",
"fX c #D1B29C",
"gX c #C6AEA3",
"hX c #CDB2A3",
"jX c #CBB4A7",
"kX c #D2B6A3",
"lX c #D4B9A5",
"zX c #D3B7AC",
"xX c #D4B8A9",
"cX c #D3BAAC",
"vX c #D9C3B6",
/* pixels */
":X&X&X&X:X&X&X&X%X&X$XOXOX.X].]..X_..XR.T.Y.T.Y.Q.T.R.Q.).R.Q.).R.{.(.).",
":X&X%X;X,X:X&X&X&X$X&X$XOXOX]..XW.Q.`.T.T.T.Q.Q.R.Q.).Q.Q.Q.Q.).).R.).R.",
":X;X&X&X1X:X<X&X&X&X&XOXOX.X].`.Q.W.`.Q.Y.R.).Q.R.).).).).).).).R.).).).",
":X;X1X1X1X:X;X:X;X&X&X&XOXOX.X`.).).Q.).Y.Q.Q.T.).).).).).).).R.).).).R.",
":X1X;X1X>X>X:X:X&X$X%XOX$XOX`.].`.`.Q.T.Q.Q.).).).Q.Q.).Q.).).).).).Q.R.",
"1X;X1X6X6X6X>X1X%X$X$X&XOX$XOX.X.X`.oX).Q.T.Q.`.).Q.Q.Q.).).).).).Q.).).",
"1X1X>X6XqX6X1X6X;X&X$X&XOX$X[.].].`.].Q.Q.`.`.Q.`.).).Q.`.`.).).).).).).",
",X8X;X6X7X6X6X6X,X,X&X&X$X$XOXOX`.[.`.Q.W.`.`.`.).).`.Q.`.).).).).Q..X).",
"6X6X>X6X8X8X6X1X1X$X&X-X$X$XOX].`.`.`.T.W.~.`.`.Q.`.Q.`.`.).`.).).).).).",
"6X6X1X6X6X8X7X1X-X&X$X>X&X$X$X$X].].`.W.`.`.Q.`..X`.`.`.].`.`.`.`.).).Q.",
"7X7X6X7X8X9X8X7X,X$X&X8X-X$X$X$XOX].].~..X`.`.`.].`.].`.].`.`.`..X`.`.).",
"7X7X7X9X8X8XwX9X>X-X:X,X&X$X$X$XOXOX].`..XQ.].].`.].].`.].`.`..X.X).`.).",
"8X9X9X9XR.qXqX9X6X,X,X8X-X-X$X$X].].].~.`.`.!.`.`.`.`.`.]..X].oX`.`.`.`.",
"6X5X9X7X^.XX7X9X>X>X1XY.-X-X$X$X].`._.~.`.!.].!.!.`.`.4.o % ; . `.`.Q.`.",
"5X5X5X7X XB T O O = {.G.&X$XOX].!.!.!.I.L.O.!.I.!.~.n . X + o $ ).`.`.`.",
">XW.U.D.+XM 4 4 . 2 T ~ J.A.A.A.D.O.4.<.<.+.E.I.!.    X o X o & X `.Q.`.",
" .K.&.4.M p E + O M M J K.A.4.,.A.4.<.=.+. .&.I.  .     . X X X X X ).`.",
"+.X.1.).p ; . T 4 B.N.1 A.5.A.5.A.4.<.=.o.L  .  . X . .   o X . X X `.).",
"/ Y  .2X}.@XpX% ! K B.; [ 5.6 L 5 m m 1 6 } = X < . = @ X . .   . X N `.",
"P P o.+X3XH.3X@XhXkXyXsXaX@ .   % E.jX<X#.!.qXqX4.P . . + O . X . X m Q.",
" .L L Q tX@X#X}.@XhXtXhX_.  + + O aXcXcXcXjXE.. p a O O   @ X X . . N Q.",
"U m Y o.&X@X|.N. X}.sX+X} p ; O # gXcXcXjXgXn O @ . gX1     5 1 . o <.T.",
"3.1 m N H +X|.+XtXyX4X=X@ B n a ; cXhXcXcXZ.m     . cX%Xn 1 4 X 4 * ..L.",
"3.3.5.4X|.R.tXyX@XyXsXC.  n.; O 2XdXhXkXdX`.    X jXvXvXvXjX=.3 E P F.C.",
"1.+.5.o.P L.0X}.rXhXjX= . [ 1 -.aXaXdXkXaXT.  X cXvXvXcXxXlXzXaXb.M :.4.",
"O.X.o.3.<.| ,.@XiX0X<.; . p 5 2XdXsXkXuXlX`...uXxXcXvXlXiXlXkXaX+XZ.4 V.",
"+.P Q +.Q 1.&.@X3X+XM   1 G.n sXsXdXiXyXlXfXdXfXdXlXxXsXkXlXcXhX=X;.1 < ",
"Y +.A.<.<.,.5.&.D.hX0X! 4XsX3XeXdXiXeXiXlXkXkXiXiXrXrX@XuXdXhXgXY.W ( ^ ",
":.Y Q 1.A...#.Q :XjX0XsXsX@X|.R.eXtXsXtXeXfXkXiXrX/.|.@XG.@X&X6.L.K.K.K.",
"| =.<.Y A.2.&. .=.2XzXkXtXW $.Q.m.{.4XtX@X{.G.*.@.F.F.A.L.&._.<XK.3.&X[.",
"A. .&.=.2.A.P o.`.yXsXhX3X,.,.( &.$.m.,.J ! o.F.F.).`.L.:X`.5.[.L.A.W.[.",
"| 3.Q &.M ( O. .Y.sXsX4XR ^ V.oX,.T.C.oXF.^ W ( _.V.L.X.`.W.F.'.&.T.$X/ ",
"..1.&.=.=.&.&...uXyXyXQ %.F.A.E.F.,.W.V.2.,.X.R.,.O.Q.#.'.1.&.T.K.<.W.O.",
" .&./ O.O.&.J.o.0XtX2XW W ).'.<.E.( D.2.2.#.T.W +XZ.F.F.2.P.&./ / Y.&.(.",
"+. ...o.Q ..Q o.yXsXm ( &.*.F.V.A.T.@.,./ $.@.OX:.).( Q '.<.2.I.V.( ..Y ",
" .Y 1.&. .( &...R.cX..,.#...:.F.2.K.2.R.D.E.L.( oXJ A.'.F.I.W.&...F...F.",
"+.| P / / 5.O.Y yXqXQ *.V.A.,.#.( (.^ ).Q.( &.W.&.:.,.2.:.$.#.`.,.Q.'./ ",
"U =.+.Q 2.A.<.,.{.,.O.$.&.V.A.D.oXZ.( J.A.,.;.F.1.Q.V.&.&.oX&.M S.&.Q ( ",
" . .Y <.<.<.E.P <.W 2.D.2.L.+.P.P.E.Y.,.W.,.A.2.&.A.L.V.M $.:.1.A.#.:.@.",
"I |  .&...4.&.+...<.V.,.( ( :.V.L.#.F.P.A.Z.F.D.,.V.( ( 2.L.,.Q.$.I I Z.",
"5.&.O.+.:.1.<.,.A.,...&.:.V.^ C.W ,.^ >.( G.O.4./ ,.A.( J 2.#.P 2.,.,.W ",
"..&.:.&.+.4.1.<.A.X.,...L.A.&.,.:.Y.).).F.,.:.I T.A.$.A.<.#.E I $.F.V.V.",
" . .5.A.,.O.,.O.o.&.&.&.&.( &.#./ ,.#.&.&.F.W ,.( F.:.$.:.>.V...A..XW P.",
"3.| Q #.&.&.,.I ! 1.@.,.$.,.! V.1.C.) Z.V.,.^ :.S.A.,...I.( W.S.V.&.,./ ",
"..Q 2.( &.:.,.X.( ,.V.&.#.&.&.2.@.:.,.,.@.,.V.V.Y.V.D.T.(.F.V.2.F.D.,.Z.",
"&.%.W ..&.,.1.&.W @.,.$.^ 2.` &.( ,.,.C.2.*.W $.@.X.,.,.T./ ^ 1.#.^ I ;.",
",.#.( ..^ ( 1.X.,.( @.W W ( &.A.F.V...Z.Z.*.V.M.( O.V.W A.V.(.:.:.( &.;.",
", > * : ^ ,.( ! @.@.( ^ m.^ ,.Z.@.` ,.,.$.G.Z.,.@.F.^ ..F.2.$.X.D.J V.M.",
"e q 8 8 : * + ` ^ #.M.*.` ,.$.[ @.( C.&.( F.;.M.$.S.m.J &.a ,.[ V.J V.,.",
"e i u e e , 8 * o + [ [ n.;.n.` M.Z.M.F.^ ( A.Z.@.] a ^ @.@.R Z.W (.R ( ",
"k r r e e e q % $ $ , : % & _ n.;.[ ^ W ^ ;.V.R W *.@.$.,.Z.,.R Z.V.( `.",
"d F t F w k , e & : e w w > * & * [ Z.[ [ _ E ;.Z.] ( Z.@.$.m._ F.] ] $.",
"i.S A F v l 0 9 8 s d y k 9 9 q , , : * v.v._ ` n.] ;.] R ;.>.^ ] ,.#.) ",
"i.S x.p.j 7 r k e x h l k k q e q y 8 9 % : : , E { ` $.;.] ] M.^ $.$.R ",
"d.F l v t r b e S A b A d d d d t e u e g e q 8 , , % v.B.] T $.[ ^ M.$.",
"d.G s.d.s v k C x F d.A i.d A t d h 9 r l g t g r w 8 8 q u T [ ] Z.{ $.",
"f.F e.r 0 s t A s.D Z i.F a.h A C S h V j l k r z z u t D k D Z Z e.N.n.",
"q.7.0.t A 0 q.q.Z s.q.C h q.q.G s.i.q.x x S V A k S z k A 8 d e.q.q.C C ",
"q.x s x f d h.s.j d.C r.x w.C 8.i.o r.a.e.a.v C x j h d f.i.s g a.V g y.",
"r.7.r h s 8.l.c.f.r.g.x.C x r.7.C g.t.q.s.j.8.S Z s.C q.j.f.h C r.a.G f.",
"q.f h C f j.8.F z.h.h.0.7.7.r.r.q.9.l.l.v w.C 9.r.h.8.j.C s.9.r.q.9.* 8.",
"q.d h k z.8.Z q.w.9.g.h.c 7.w.k.p.u.9 x C t.h.u.C C 8.C y.h r.l.t.w.' k.",
"f v 0.w.V 8.G h.t.8.C k.8.h.t.h.c t.h.w.t.c g.t.h.f.r.c c 7.w.k.8.w.j k.",
"C s.h C r.8.S 8.g.u.C w.g.h.9.C C k.7.k.0.k.9.u.8.o w.w.8.9.a.7.t.u.k.9."
};
