/* XPM */
static char *f3e388a8b6e54e74829770cfd2e50b6aAJdh4hDYCWgwOqaL[] = {
/* columns rows colors chars-per-pixel */
"36 64 241 2 ",
"   c #060403",
".  c #0B0906",
"X  c #0A0907",
"o  c #130D06",
"O  c #110D0A",
"+  c #1B1107",
"@  c #14110D",
"#  c #1B140D",
"$  c #1B1511",
"%  c #181515",
"&  c #1D1914",
"*  c #22190D",
"=  c #221C15",
"-  c #271D14",
";  c #231D19",
":  c #272119",
">  c #2C241C",
",  c #33261B",
"<  c #181B24",
"1  c #231F20",
"2  c #1C2125",
"3  c #1E222B",
"4  c #1E2732",
"5  c #262324",
"6  c #24252C",
"7  c #29272C",
"8  c #2C292C",
"9  c #322B24",
"0  c #392E23",
"q  c #352D29",
"w  c #3C3126",
"e  c #3C342C",
"r  c #232632",
"t  c #242A34",
"y  c #2B2C34",
"u  c #262E3A",
"i  c #2A2D39",
"p  c #302F34",
"a  c #2C323E",
"s  c #363436",
"d  c #33343D",
"f  c #3B3A3E",
"g  c #402F1F",
"h  c #52252C",
"j  c #423425",
"k  c #43352B",
"l  c #45392B",
"z  c #4A3C2B",
"x  c #443A33",
"c  c #4B3D33",
"v  c #4D3F38",
"b  c #573938",
"n  c #6B343B",
"m  c #4E412B",
"M  c #53432D",
"N  c #59452E",
"B  c #4C4238",
"V  c #524432",
"C  c #564837",
"Z  c #55493C",
"A  c #5B4B3C",
"S  c #614B38",
"D  c #665338",
"F  c #735B3C",
"G  c #2E3543",
"H  c #323642",
"J  c #343A46",
"K  c #3B3B44",
"L  c #363D4A",
"P  c #393E4B",
"I  c #373E50",
"U  c #413F49",
"Y  c #6E3943",
"T  c #36414E",
"R  c #3C424D",
"E  c #3C4453",
"W  c #3E495B",
"Q  c #474445",
"!  c #45454B",
"~  c #534B47",
"^  c #5B4E42",
"/  c #5D5045",
"(  c #5D524C",
")  c #454955",
"_  c #444A59",
"`  c #4C505E",
"'  c #565457",
"]  c #6A4C4A",
"[  c #635647",
"{  c #6D5C44",
"}  c #6B5B4A",
"|  c #715E45",
" . c #705F4F",
".. c #675B53",
"X. c #775F58",
"o. c #6E624C",
"O. c #736145",
"+. c #73644C",
"@. c #7A664A",
"#. c #7B684B",
"$. c #6E6253",
"%. c #6C625E",
"&. c #736553",
"*. c #756954",
"=. c #7B6C53",
"-. c #72655B",
";. c #796459",
":. c #766C5A",
">. c #7B6D5B",
",. c #796E5A",
"<. c #7D715C",
"1. c #474E60",
"2. c #475061",
"3. c #4C5463",
"4. c #595B67",
"5. c #555B6E",
"6. c #565F71",
"7. c #5C6274",
"8. c #596476",
"9. c #69676A",
"0. c #726A67",
"q. c #7C6E63",
"w. c #7E7362",
"e. c #7B726C",
"r. c #686C75",
"t. c #646C7C",
"y. c #6C717D",
"u. c #777678",
"i. c #803440",
"p. c #826B4B",
"a. c #826E52",
"s. c #89645E",
"d. c #806E5C",
"f. c #8B7554",
"g. c #82745C",
"h. c #8A7659",
"j. c #876967",
"k. c #847464",
"l. c #857962",
"z. c #8C7B64",
"x. c #887669",
"c. c #8C7C6B",
"v. c #917E64",
"b. c #917E6D",
"n. c #8C7D73",
"m. c #897A76",
"M. c #917D73",
"N. c #977A7A",
"B. c #8F806B",
"V. c #928166",
"C. c #94836C",
"Z. c #9A866D",
"A. c #99896E",
"S. c #8E8274",
"D. c #8D837B",
"F. c #948574",
"G. c #968873",
"H. c #9B8C74",
"J. c #93857A",
"K. c #9B8479",
"L. c #95897C",
"P. c #9C8B7C",
"I. c #9F937C",
"U. c #A08E78",
"Y. c #A1917B",
"T. c #666F81",
"R. c #6B7284",
"E. c #6E7688",
"W. c #6D788E",
"Q. c #757987",
"!. c #737B8C",
"~. c #737E90",
"^. c #817F82",
"/. c #7F8082",
"(. c #7B8394",
"). c #7C869A",
"_. c #898788",
"`. c #958B83",
"'. c #9B8C82",
"]. c #998C88",
"[. c #9E9284",
"{. c #96928D",
"}. c #9C938D",
"|. c #858A97",
" X c #918F93",
".X c #8C9199",
"XX c #949494",
"oX c #9B9694",
"OX c #989898",
"+X c #9B9B9D",
"@X c #A28E83",
"#X c #A39384",
"$X c #A2948A",
"%X c #A89A8B",
"&X c #A59A92",
"*X c #A79A96",
"=X c #AA9D93",
"-X c #A29D9B",
";X c #A4A19D",
":X c #AAA19A",
">X c #8A94A3",
",X c #9499A6",
"<X c #9C9DA1",
"1X c #9EA3A9",
"2X c #9DA5B3",
"3X c #A3A3A3",
"4X c #AAA7A4",
"5X c #A4A5AA",
"6X c #A6A9AC",
"7X c #ABACAD",
"8X c #B3AEAA",
"9X c #AFB0AC",
"0X c #A4A9B4",
"qX c #ABADB1",
"wX c #ADB1B3",
"eX c #ABB1BB",
"rX c #B3B3B4",
"tX c #BBB7B5",
"yX c #B3B5BA",
"uX c #B6B9BC",
"iX c #BBBBBD",
"pX c #C0BCBA",
"aX c #AFB7C0",
"sX c #B6BBC3",
"dX c #B6B9C5",
"fX c #BBBDC4",
"gX c #BBC1C4",
"hX c #BDC3CC",
"jX c #BDC5D1",
"kX c #C5C3C5",
"lX c #C4C5CB",
"zX c #C8C8CB",
"xX c #C4CAD4",
"cX c #CCCDD3",
"vX c #CBD2DD",
"bX c #D2D2DC",
"nX c #CBD4E3",
"mX c #D4DAE3",
"MX c #DBE2EE",
"NX c #DFE7F3",
"BX c #E0E8F3",
/* pixels */
"O.O.{ @.F { D D D A A m V g.<.=.g.g.=.g.g.l.l.g.l.l./ k g.l.l.l.l.l.l.l.",
"+.O.+.@.F O.D O.D C N z m *.*.*.*.+.*.=.*.*.=.>.g.$.x e l.>.<.=.<.>.>.*.",
"=.+.O.@.O.O.D F D N C z z +.+.+.+.o.+.o.+.+.&.<.* c Z / &.=.*.*.>.<.<.>.",
"+.{ | #.p.O.D | N N V l V *.+.+.=.*.+.*.} &.=.>.c Z Z ^ :.:.*.w.=.*.:.w.",
"+.{ | #.p.O.F | N m M z V *.=.*.=.*.*.&.o.=.*.j Z -.[ $.>.>.=.w.w.*.&.:.",
"+.{ @.&.A { F { N N M j z =.g.*.=.*.o.*.+.&.x / - ( > <.w.<.>.:.:.*.[ *.",
"=.{ | =.} } g { N M z j l =.*.&.*.+.&.$.  # , Z k ^ > <.<.} *.*.*.+.>.:.",
"d.+.+.=.>.} &.[ + , j j m >.=.g.D [     Z & k k c k > &.w.>.>.:.*.+.>.*.",
"+.+.+.=.a.;.A } [ c     .   >       O O o . > - > 0 9 &.*.:.>.:.&.o.>.*.",
"=.+.#.+.a.{ C  .C l # >         @   $ : & $ $ # , w : Z } *.>.&.&.&.>.$.",
"=.+.| g.a.O.} &.C > # @ @ . .   .   q * 0 > # . & : @ , [ :.>.:.&.&.$.*.",
"<.=.| @.a.+.{ , , , # w = $ ;   e . = 9 % > : O   . O # z k.w.w.*.&.>.:.",
"=.=.#.#.p.| N [ V # B * O O c @ w ; @ > # - - % ; = O = @ , [ :.$.*.-.$.",
"g.>.+.#.p.@.@.j - l e : @   0 . O ( & 9 : , k = O @ & ; @ - : w o.>.-.:.",
"g.=.+.#.f.@.D l @ , 0 o w @ 9 @   q = [ $.v k = O . O @ & # : - > l c [ ",
"g.g.#.a.f.p.0 @ @ j [ 0 0 * -.; $ 9 m.v . & k > = = ; > ^ [ ../ ^ c w Z ",
"g.g.a.a.f.p.z O . V Z >.q.q.m.~ 9 L.@ 9 . = v q v e q [ w.-.;.>.[ B x > ",
"g.g.=.a.f.a.S B - j & O & $ $X%.c e.. = [ J...Z ^ c [ n.k.k.q.^ Z Z e 5 ",
"l.h.g.#.h.a.S k.Z  .: @ 5 O F.x.k 9 $ S k L.'.`.D.m.J.J.n.w.q.q.$.^ e > ",
"<.l.h.=.f.a.N C.#X'.J.S.:.= k.-.x.~ > n.J.L.'.`.`.D.J.n.[ &.q.q...^ e > ",
"z.z.l.g.h.p.| +.#X=X$X$XF.x.M.K.$Xm.$X`.}.$XJ.D.J.J.n.S.J.x.k.q.-.~ ..B ",
"G.c.z.h.h.@.=.>.P.$X=X=X$X#XM.@XK.].&X`.*X}.`.n.`.n.P.J.n.x.q.-.( e = ( ",
"G.C.z.g.v.a.=.c.F.P.[.[.=X&Xj.N.N.m.$X*X*X&X;.M.'.'.J.n.S.n.q...e f ~ e.",
"C.V.V.h.V.f.l.F.F.P.P.$X}.&X*XK.N.'.*X*XoXN.] '.[.J.J.c.k.k.-.( 0.> ( m.",
"H.C.C.C.v.h.z.F.G.P.[.P.#X%X:X@Xj.'.=X&Xj.X.M.'.d.J.P.x.x.q.e ~ B B ..D.",
"H.C.G.C.z.V.v.F.G.F.P.'.'.P.M.K.b n b b h ] P.'.P.P.k.x.'.n.~ ' e 0.D.{.",
"P.Y.G.C.h.V.z.C.F.F.F.P.$XP.P.b.X.n b b n ] x.P.k.x.L.`.J.Q Q e.].oX-X-X",
"H.F.A.H.V.v.V.V.C.F.#X#XP.@Xb.K.v.s.b ] n b K.M.#X$X'.$Xm.8 0.`.oX}.oX-X",
"H.G.H.H.Z.v.C.H.C.z.P.%X#X%XK.c.h.s.n Y n S x.P.'.P.$X'.%.0.}.-X3X;X3X4X",
"P.H.C.H.V.v.Y.C.x.z.P.K.@X[.b.b.P.k.s.i.b ;.F.'.'.%X#X%.( _.3X3X7X7XrX7X",
"C.A.A.A.A.h.H.H.P.x.&.b.d.#XK.Y.P.c.b.M.#Xx.$X$XP.'.F.e._.oX4X7XrXrXrXrX",
"H.H.A.H.Z.V.H.C.C.C.l.d.z.#X#X%XP.'.=X=X=Xn.%X'.P.P.n.D.oX4X7XrXyXuXuXfX",
"F.G.C.A.A.Z.H.Z.U.F.b.k.c.#XP.P.P.&X&X}.$X'.n.n.[.&X$X'._.7X7XrXuXfXfXfX",
"H.H.G.H.A.v.Y.H.Y.F.b.d.z.%XP.P.c.&.'.$X$X=X:X4X:X4X`.}.-XrXyXuXsXfXfXuX",
"G.H.H.H.A.g.H.H.C.C.x.d.{ b.%XP.k.$X*X8X8XtX4XtXtXtX:X&X-X+X5XqXyXdXeXsX",
"I.Y.H.H.A.g.P.v.P.G.F.d.| F.#XF.$XtXpXpXkXtXkXzXpXiX8X:XqXXX3XyXyXhXlXhX",
"G.H.H.H.Z.z.H.C.P.K.c.k.{ =.[.k.pXtXpXkXiXzXzXzXkXiXrX;X7XfXyXfXhXhXhXhX",
"I.H.A.A.V.g.H.G.H.G.c.k.M { g.'.zXtXrXkXkXzXkXrXiXiX7X;XoXrXqXyXwXsXfXyX",
"H.H.C.H.h.d.g.+.d.;.&.&.=.=.} 8XzXyXcXzXcXkXtXkXzXyXrXfXuXwXsXlXeXxXhXfX",
"Y.H.C.h.z.z.B.F.C.c.l.k.k.>.&.tXkXlXcXcXcXrXkXcXzXrXfXoX+XsXsXhXhXyXxXvX",
"I.C.l.F.C.G.P.L.F.'.P.F.J.x.>.`.fXlXcXbXcXyX3XfXgXzX-X X<X0XeXaXjXaXxXbX",
"G.B.F.C.S.F.x.L.J.[.`.`.L.&.c.`.7XdXdXzXfX5XfX X^.5X_.0.<X1X0XvXcXlXhXhX",
"S.S.[.F.L.J.`.S.S.L.L.}.`.n./ J.D._.XX_.qX5XOX3Xm._.<X5X1X,X0XnX6XwXhXmX",
"S.[.L.D.n.`.D.&X}.].}.}.0.0.0.( ~ Q ! ' u.r.u.u.' ! 0X0XeXeXjXxX3XxXmXBX",
"D.`.D.}.oXoX{.oX{.-X`.0.x : 1 8 5 f s y 5 p f ) 4.9.|.,X>X,XaXhX1XvXxXNX",
"`.;X{.`.{.-XoX3XoX_.u.Q : 8 p 7 7 7 7 y K p K ! 4.3.Q.R.2X0X,XeXhXbXNXMX",
";XOX+X3XOX3X3X3XXX_.' s 5 8 y 7 y d 8 7 6 y ) J U ) E.y.(.|.,X,X.XxXNXMX",
"+X3X3X;X7X4XXX+X7X0.s p s 8 U 7 7 7 H y R 6 K ) 4.P (.!.!.(.,X|.2XeXmXmX",
"<XXX+XOX7X7X+Xu.9.f 8 p 6 7 Q K y r i R K 6 5.R t.!.` t.!.!.|.>X.X,X0X1X",
"uX<X3X<X3X5X<X_.0.f 8 8 7 6 y K ! d _ y L J G _ G R.(.7.!.).|.(.,X2X,XR.",
"+X7X+X7X5X6X3X{.0.9.x 8 5 ! y d H t a _ 5.7.7.I E !.(.t.E.E.).t.~.!.,Xt.",
"qXyXyXuXqXqX7XoX X9.9.! 6 y d p 2 r R R ` E.T.W 8.5.R.!.R.!.(.).E.E.|.).",
"+X7XwXuXrXqX+XXX.Xr.9.) f y y 6 J t i J P t 3.!.W.!.5.6.6.~.!.>X!.R.(.t.",
"lX5XuXlXwXyXqX XOX+X' Q d y y i 3 6 ` 3 d 6 3.2.t.)._ E.R.8.R.7.7.R.t.!.",
"7X3X7X3X3X3X7X+XXX/.u.! f p 6 7 t < 3 3 3 G J E 2.7.E._ 5.T.T.7.7.6.7.3.",
"5X7X7X7XyX3XXX5X+X Xu.u.) d y i i 6 E 3 < < 3 E 5.7.t.t.7.6.3.5.E E t.3.",
"wX7XyX7XwXgX7X7X+X_.9.' ! f f 7 K t H y d R ` R J P 5._ 3.E E ) J ) _ T ",
"iX7X7X6X1XrX6X6X<XqXu.u.~ R p y y a a t y G E J ) a G R J t G J ) L L L ",
"qXrX4X6XqXuXuXuXqX3XOX X9.! d f 8 y 6 ! d L t 3 G 1.3.R u i i r 4 8.E P ",
"yXwXuXuXyXyXwX9XsXyX6XXXXX9.! K y t 6 6 t L H ) ) a u G L H G u u t 4 T ",
"wX7XrXfXgXgXgXqX6XqX6X6X3X Xu.' f f d t y 6 3 y L L E G T t r u t a a a ",
"wXuXyXwXwXgXcXlXyXwXqXwX5X1X+X_.u.4.! H y r R J < 6 y G i G t u r t t t ",
"uX5X6XuX7XwXwX9XwXfXuXwXiX5XqXwX+X.X_.r.4.) R E T J i i t 3 r 3 u t u T ",
"7X9X5XwXiXgXgXwXfXwXqXwXwXyXuXuXwX7X5X,Xy.4.) R R _ L J u a y u t t t 3 "
};
